# xmcd
#
# Track frame offsets:
#	150
#	13469
#	33499
#	54983
#	73980
#	92493
#	116004
#	134407
#	171330
#	191319
#	216151
#	236119
#	263779
#
# Disc length: 4108 seconds
#
# Revision: 1
# Processed by: cddbd v1.5.1PL0 Copyright (c) Steve Scherf et al.
# Submitted via: audiograbber 1.83.01
#
DISCID=c1100a0d
DTITLE=John Stewart - 1976-04-23 - Ebbet's Field Denver, CO - FM-sbd
DYEAR=1900
DGENRE=
TTITLE0=Runaway Fool Of Love
TTITLE1=Josie
TTITLE2=Mazatlan
TTITLE3=Friend Of Jesus
TTITLE4=Crow's Landing
TTITLE5=Wingless Angels
TTITLE6=Survivors
TTITLE7=Lookin' For The Wind-Mother Country
TTITLE8=July You're A Woman
TTITLE9=Wolves In The Kitchen
TTITLE10=Summer Child
TTITLE11=Lady And The Outlaw
TTITLE12=Never Goin' Back
EXTD=
EXTT0=
EXTT1=
EXTT2=
EXTT3=
EXTT4=
EXTT5=
EXTT6=
EXTT7=
EXTT8=
EXTT9=
EXTT10=
EXTT11=
EXTT12=
PLAYORDER=
